<svg viewBox="0 0 800 800" xmlns="http://www.w3.org/2000/svg"><path d="M380.2183637292751,564.812726520372 L114.20091783103408,718.4100633693965 M379.92280027657125,258.16610727028865 L113.88435904154721,411.7513781748494 M380.2183637292751,564.812726520372 L411.97225590272683,578.7356048525412 M411.97225590272683,578.7356048525412 L441.8728910297814,582.9395766671291 M441.8728910297814,582.9395766671291 L468.18258278178837,577.1799928594382 M468.18258278178837,577.1799928594382 L489.3721659038315,561.7911646794728 M489.3721659038315,561.7911646794728 L504.209954399048,537.667093554534 M504.209954399048,537.667093554534 L511.83332826053083,506.20955110385876 M511.83332826053083,506.20955110385876 L511.7989524783088,469.24666591193954 M511.7989524783088,469.24666591193954 L504.1086110411479,428.92671103316843 M504.1086110411479,428.92671103316843 L489.209152237358,387.593215083828 M489.209152237358,387.593215083828 L467.96653725513306,347.6487143111608 M467.96653725513306,347.6487143111608 L441.61548261879034,311.4150172299819 M441.61548261879034,311.4150172299819 L411.687709092585,280.99819354734154 M411.687709092585,280.99819354734154 L379.92280027657125,258.16610727028865 M114.20091783103408,718.4100633693965 L145.95449923473643,732.3356640458228 M145.95449923473643,732.3356640458228 L175.85423165329803,736.5418495272547 M175.85423165329803,736.5418495272547 L202.1624811978595,730.7838420211478 M202.1624811978595,730.7838420211478 L223.35016639676178,715.3958611117887 M223.35016639676178,715.3958611117887 L238.18571152029654,691.2718589295332 M238.18571152029654,691.2718589295332 L245.80662691083126,659.8136030385917 M245.80662691083126,659.8136030385917 L245.76972041989166,622.8492634582794 M245.76972041989166,622.8492634582794 L238.07692311202572,582.5271977667235 M238.07692311202572,582.5271977667235 L223.17522601732617,541.1910572802444 M223.17522601732617,541.1910572802444 L201.93072043359507,501.24353198567997 M201.93072043359507,501.24353198567997 L175.57823279387276,465.00660622903706 M175.57823279387276,465.00660622903706 L145.64956717393852,434.58653741199123 M145.64956717393852,434.58653741199123 L113.88435904154721,411.7513781748494 M379.92280027657125,258.16610727028865 L348.167079852436,244.24566964425003 M348.167079852436,244.24566964425003 L318.26623489203484,240.04565714401951 M318.26623489203484,240.04565714401951 L291.95799979401954,245.80981184424445 M291.95799979401954,245.80981184424445 L270.771206111473,261.20277535858804 M270.771206111473,261.20277535858804 L255.93690081486238,285.3295989050134 M255.93690081486238,285.3295989050134 L248.31690595186,316.7878803172025 M248.31690595186,316.7878803172025 L248.35378244439244,353.7493217233591 M248.35378244439244,353.7493217233591 L256.0451734209023,394.0659808231185 M256.0451734209023,394.0659808231185 L270.9439901570295,435.3950840232519 M270.9439901570295,435.3950840232519 L292.18441855482706,475.33510140298677 M292.18441855482706,475.33510140298677 L318.5322430079,511.5652515392244 M318.5322430079,511.5652515392244 L348.4564827510244,541.9802772854623 M348.4564827510244,541.9802772854623 L380.2183637292751,564.812726520372 M113.88435904154721,411.7513781748494 L82.12894948305984,397.8282183675915 M82.12894948305984,397.8282183675915 L52.229007494222515,393.6259926538132 M52.229007494222515,393.6259926538132 L25.92221497363562,399.38857169215953 M25.92221497363562,399.38857169215953 L4.737319606359051,414.7806886154658 M4.737319606359051,414.7806886154658 L-10.094741994120795,438.90744378296085 M-10.094741994120795,438.90744378296085 L-17.712278203736787,470.3664389542005 M-17.712278203736787,470.3664389542005 L-17.67287100385147,507.32933474953825 M-17.67287100385147,507.32933474953825 L-9.979024341494096,547.6481043446938 M-9.979024341494096,547.6481043446938 L4.922030359542077,588.9798515191105 M4.922030359542077,588.9798515191105 L26.164348966387934,628.9228927413637 M26.164348966387934,628.9228927413637 L52.513606053827516,665.1562709127984 M52.513606053827516,665.1562709127984 L82.43873762965177,695.5745413389677 M82.43873762965177,695.5745413389677 L114.20091783103408,718.4100633693965" stroke="black"  stroke-width="4"  fill="red"/>
<path d="M567.8833084361127,456.4557891414747 L686.0866755290604,388.2056699406098 M686.0866755290604,388.2056699406098 L717.8409244789809,402.12541842307155 M717.8409244789809,402.12541842307155 L747.7425969100159,406.3268453181954 M747.7425969100159,406.3268453181954 L774.0539462348688,400.5654494659566 M774.0539462348688,400.5654494659566 L795.245710903981,385.17564749110625 M795.245710903981,385.17564749110625 L810.0860781751212,361.05149747950827 M810.0860781751212,361.05149747950827 L817.7122782037368,329.5947756905598 M817.7122782037368,329.5947756905598 L817.6808117515752,292.6335630467611 M817.6808117515752,292.6335630467611 L809.9932937275094,252.3160354001143 M809.9932937275094,252.3160354001143 L795.0964083155218,210.98558027363606 M795.0964083155218,210.98558027363606 L773.8559671151334,171.0445571369919 M773.8559671151334,171.0445571369919 L747.5065602794575,134.81457233192668 M747.5065602794575,134.81457233192668 L717.5798127734042,104.40147975741547 M717.5798127734042,104.40147975741547 L685.8152485426449,81.57292653855802 M685.8152485426449,81.57292653855802 L654.0591712318987,67.6556185747163 M654.0591712318987,67.6556185747163 L624.1572886651456,63.45815047274482 M624.1572886651456,63.45815047274482 L597.8473955689569,69.22411648201842 M597.8473955689569,69.22411648201842 L576.6584198884939,84.61805300994592 M576.6584198884939,84.61805300994592 L561.8215354428717,108.74495479491907 M561.8215354428717,108.74495479491907 L554.1987142028843,140.2024151789301 M554.1987142028843,140.2024151789301 L554.232681366811,177.16218403612766 M554.232681366811,177.16218403612766 L561.9212491426533,217.47641626872655 M561.9212491426533,217.47641626872655 L576.8174928617154,258.802479293156 M576.8174928617154,258.802479293156 L598.0557479288773,298.7390198179651 M598.0557479288773,298.7390198179651 L624.4019250055826,334.9654584141831 M624.4019250055826,334.9654584141831 L654.3251390287455,365.3767535747552 M654.3251390287455,365.3767535747552 L686.0866755290604,388.2056699406098 M567.8833084361127,456.4557891414747 L536.1216387571981,433.62550752338075 M536.1216387571981,433.62550752338075 L506.198028306434,403.21277069210146 M506.198028306434,403.21277069210146 L479.85121458220465,366.98489777366285 M479.85121458220465,366.98489777366285 L458.6121196327854,327.04701360884474 M458.6121196327854,327.04701360884474 L443.71488159286173,285.7197756877963 M443.71488159286173,285.7197756877963 L436.02522283166627,245.4046055615745 M436.02522283166627,245.4046055615745 L435.9901314148515,208.44419030872268 M435.9901314148515,208.44419030872268 L443.61186047189267,176.9864125932345 M443.61186047189267,176.9864125932345 L458.4477482850116,152.85954099500395 M458.4477482850116,152.85954099500395 L479.63588081657963,137.46598043904623 M479.63588081657963,137.46598043904623 L505.94513326324613,131.70071436329363 M505.94513326324613,131.70071436329363 L535.8466149256951,135.89916570610285 M535.8466149256951,135.89916570610285 L567.6025543865057,149.81768309345716 M567.6025543865057,149.81768309345716 L599.367251837351,172.64760163763685 M599.367251837351,172.64760163763685 L629.2943958870205,203.06213608475036 M629.2943958870205,203.06213608475036 L655.6444395341932,239.29355549649017 M655.6444395341932,239.29355549649017 L676.8857207911983,279.2359225749924 M676.8857207911983,279.2359225749924 L691.7836006688544,320.56755284818246 M691.7836006688544,320.56755284818246 L699.4722097603512,360.88601852949705 M699.4722097603512,360.88601852949705 L699.5048004659484,397.84787756863443 M699.5048004659484,397.84787756863443 L691.8796925391707,429.30491654745583 M691.8796925391707,429.30491654745583 L677.040321756348,453.42903612185864 M677.040321756348,453.42903612185864 L655.8494000619044,468.8184618228138 M655.8494000619044,468.8184618228138 L629.538691222213,474.5791574573018 M629.538691222213,474.5791574573018 L599.6374195786461,470.37674711991895 M599.6374195786461,470.37674711991895 L567.8833084361127,456.4557891414747 M567.821702305871,389.16989558178693 L549.9995040044423,376.3596210245287 M549.9995040044423,376.3596210245287 L533.2085982940816,359.29447650778775 M533.2085982940816,359.29447650778775 L518.424711904086,338.96617365313114 M518.424711904086,338.96617365313114 L506.5069473330441,316.5560334742677 M506.5069473330441,316.5560334742677 L498.1478639985153,293.3663216862665 M498.1478639985153,293.3663216862665 L493.8332445267033,270.74462660284416 M493.8332445267033,270.74462660284416 L493.8138622243573,250.0055489233041 M493.8138622243573,250.0055489233041 L498.0909108183487,232.3543268963008 M498.0909108183487,232.3543268963008 L506.41591967255727,218.8168096870827 M506.41591967255727,218.8168096870827 L518.3051629214388,210.17982700705852 M518.3051629214388,210.17982700705852 L533.0677549163615,206.9454293703402 M533.0677549163615,206.9454293703402 L549.8457830018351,209.30171635882334 M549.8457830018351,209.30171635882334 L567.6641680979733,217.11185682797122 M567.6641680979733,217.11185682797122 L585.4873196802969,229.92201707251115 M585.4873196802969,229.92201707251115 L602.2793379290601,246.9877275606882 M602.2793379290601,246.9877275606882 L617.064241246118,267.31714701382907 M617.064241246118,267.31714701382907 L628.9826941670794,289.7286986184463 M628.9826941670794,289.7286986184463 L637.3419795813252,312.91979331950006 M637.3419795813252,312.91979331950006 L641.6562685687009,335.54252599410347 M641.6562685687009,335.54252599410347 L641.6748635329573,356.2820582434997 M641.6748635329573,356.2820582434997 L637.396751116708,373.9330476826667 M637.396751116708,373.9330476826667 L629.070645664623,387.4696984291336 M629.070645664623,387.4696984291336 L617.1805242598484,396.1053792679354 M617.1805242598484,396.1053792679354 L602.4174737257968,399.33833792074756 M602.4174737257968,399.33833792074756 L585.6395117638986,396.9808044600172 M585.6395117638986,396.9808044600172 L567.821702305871,389.16989558178693 M686.027116045108,320.92095296644266 L703.8450028334696,328.73118319187734 M703.8450028334696,328.73118319187734 L720.6231896960053,331.08816485698526 M720.6231896960053,331.08816485698526 L735.3865996337836,327.85481333934376 M735.3865996337836,327.85481333934376 L747.277194062337,319.21892140605087 M747.277194062337,319.21892140605087 L755.6038586728273,305.68225361182886 M755.6038586728273,305.68225361182886 L759.8825838896009,288.0314421690691 M759.8825838896009,288.0314421690691 L759.8646197563799,267.29227261932374 M759.8646197563799,267.29227261932374 L755.5509429690137,244.67006626888542 M755.5509429690137,244.67006626888542 L747.1922155426564,221.47963092484088 M747.1922155426564,221.47963092484088 L735.2742339651977,199.0688333838175 M735.2742339651977,199.0688333838175 L720.4896879501002,178.74021886942955 M720.4896879501002,178.74021886942955 L703.6978921920318,161.6753174071141 M703.6978921920318,161.6753174071141 L685.8748153557076,148.86592325268248 M685.8748153557076,148.86592325268248 L668.0563529158403,141.05646141351463 M668.0563529158403,141.05646141351463 L651.2780998929434,138.70072615723666 M651.2780998929434,138.70072615723666 L636.5151484425464,141.93551656929594 M636.5151484425464,141.93551656929594 L624.6254321150309,150.57271024875035 M624.6254321150309,150.57271024875035 L616.2998640570199,164.11024442687085 M616.2998640570199,164.11024442687085 L612.0222026369693,181.7612884128839 M612.0222026369693,181.7612884128839 L612.0409541084518,202.50000339267308 M612.0409541084518,202.50000339267308 L616.3549614060944,225.12117219633728 M616.3549614060944,225.12117219633728 L624.7134867983268,248.31022470607013 M624.7134867983268,248.31022470607013 L636.6307800807631,270.71961091637513 M636.6307800807631,270.71961091637513 L651.4143092204231,291.0471089218395 M651.4143092204231,291.0471089218395 L668.2049924766179,308.11144447628294 M668.2049924766179,308.11144447628294 L686.027116045108,320.92095296644266 M567.821702305871,389.16989558178693 L686.027116045108,320.92095296644266" stroke="black"  stroke-width="4"  fill="red"/>
<path d="M380.1535079577375,497.52496513085043 L675.6843834848564,326.8925962157755 M379.9876640296775,325.4621495250535 L675.531624887888,154.83730320870563 M380.1535079577375,497.52496513085043 L397.9711945417148,505.3369515268646 M397.9711945417148,505.3369515268646 L414.74879932435715,507.69536111049865 M414.74879932435715,507.69536111049865 L429.51127912684115,504.46302626028 M429.51127912684115,504.46302626028 L441.40064940991033,495.8276806384406 M441.40064940991033,495.8276806384406 L449.725866994675,482.2910570284571 M449.725866994675,482.2910570284571 L454.00300639167335,464.6397850576209 M454.00300639167335,464.6397850576209 L453.9834098011861,443.8996770224244 M453.9834098011861,443.8996770224244 L449.6681487913679,421.27610877037796 M449.6681487913679,421.27610877037796 L441.30797745246355,398.0839672667157 M441.30797745246355,398.0839672667157 L429.3887761977585,375.6712184815224 M429.3887761977585,375.6712184815224 L414.6033056352667,355.34052105831233 M414.6033056352667,355.34052105831233 L397.8109342029843,338.2735260941422 M397.8109342029843,338.2735260941422 L379.9876640296775,325.4621495250535 M675.6843834848564,326.8925962157755 L693.5022635089335,334.70288582081184 M693.5022635089335,334.70288582081184 L710.2804306953967,337.05991576559836 M710.2804306953967,337.05991576559836 L725.043809188533,333.82659862141236 M725.043809188533,333.82659862141236 L736.9343622309598,325.19072515702055 M736.9343622309598,325.19072515702055 L745.26097791861,311.65405885306745 M745.26097791861,311.65405885306745 L749.539649518721,294.00323183475393 M749.539649518721,294.00323183475393 L749.521630190834,273.2640305485115 M749.521630190834,273.2640305485115 L745.2078998385064,250.64177814503773 M745.2078998385064,250.64177814503773 L736.8491235900888,227.45128510817176 M736.8491235900888,227.45128510817176 L724.9311007711858,205.04042158803622 M724.9311007711858,205.04042158803622 L710.1465234924449,184.71173664340859 M710.1465234924449,184.71173664340859 L693.3547082658729,167.64676439357163 M693.3547082658729,167.64676439357163 L675.531624887888,154.83730320870563 M379.9876640296775,325.4621495250535 L362.1694018288731,317.65093157434194 M362.1694018288731,317.65093157434194 L345.3917309810695,315.29376856363706 M345.3917309810695,315.29376856363706 L330.62970979987904,318.5275425398422 M330.62970979987904,318.5275425398422 L318.74121775979665,327.1641901538328 M318.74121775979665,327.1641901538328 L310.41709684497664,340.7016803517695 M310.41709684497664,340.7016803517695 L306.14102131077107,358.35318498123434 M306.14102131077107,358.35318498123434 L306.1614052390619,379.09283844673837 M306.1614052390619,379.09283844673837 L310.4769966922754,401.71536903710376 M310.4769966922754,401.71536903710376 L318.83696587906934,424.9061275027002 M318.83696587906934,424.9061275027002 L330.75547869669344,447.3174647112505 M330.75547869669344,447.3174647112505 L345.5399322501594,467.64704539378 M345.5399322501594,467.64704539378 L362.33119108605524,484.7134742855833 M362.33119108605524,484.7134742855833 L380.1535079577375,497.52496513085043 M675.531624887888,154.83730320870563 L657.7131692134776,147.027781991932 M657.7131692134776,147.027781991932 L640.9349358698714,144.67199846152425 M640.9349358698714,144.67199846152425 L626.1720158686439,147.90675450795788 M626.1720158686439,147.90675450795788 L614.2823409320554,156.54392972682945 M614.2823409320554,156.54392972682945 L605.9568218008576,170.0814624215791 M605.9568218008576,170.0814624215791 L601.6792139997033,187.73252198704677 M601.6792139997033,187.73252198704677 L601.6980206658363,208.4712687033425 M601.6980206658363,208.4712687033425 L606.0120815261807,231.09248355615637 M606.0120815261807,231.09248355615637 L614.370655736484,254.28159375182076 M614.370655736484,254.28159375182076 L626.2879902555615,276.6910459329233 M626.2879902555615,276.6910459329233 L641.0715506543465,297.0186143607907 M641.0715506543465,297.0186143607907 L657.8622533758503,314.08302069719457 M657.8622533758503,314.08302069719457 L675.6843834848564,326.8925962157755 M379.99669550832095,334.8322944712222 L675.5399437694837,164.20703845714252 M380.1444772345003,488.15560391762847 L675.6760652990038,317.52364459738556 M379.99669550832095,334.8322944712222 L364.11906383745054,327.87177053276855 M364.11906383745054,327.87177053276855 L349.1686675828428,325.77126933388763 M349.1686675828428,325.77126933388763 L336.014367946088,328.65277530545654 M336.014367946088,328.65277530545654 L325.42062242864176,336.34874015081687 M325.42062242864176,336.34874015081687 L318.00303440073367,348.4118078904139 M318.00303440073367,348.4118078904139 L314.19261462844634,364.14085624352856 M314.19261462844634,364.14085624352856 L314.2107403226346,382.6217574195498 M314.2107403226346,382.6217574195498 L318.0563046435391,402.78049891700084 M318.0563046435391,402.78049891700084 L325.50579327291143,423.44559956689045 M325.50579327291143,423.44559956689045 L336.12628077387353,443.4161686337061 M336.12628077387353,443.4161686337061 L349.30059673664664,461.53168703777874 M349.30059673664664,461.53168703777874 L364.263158292717,476.7394246478807 M364.263158292717,476.7394246478807 L380.1444772345003,488.15560391762847 M675.5399437694837,164.20703845714252 L659.6621396976575,157.24802646240505 M659.6621396976575,157.24802646240505 L644.7112422135251,155.14875451099397 M644.7112422135251,155.14875451099397 L631.556141654632,158.0311356058046 M631.556141654632,158.0311356058046 L620.9613420773626,165.72757060520598 M620.9613420773626,165.72757060520598 L613.542508119539,177.79067622293132 M613.542508119539,177.79067622293132 L609.7307229640874,193.51932799023325 M609.7307229640874,193.51932799023325 L609.7474431771384,211.9994211719304 M609.7474431771384,211.9994211719304 L613.591643600399,232.1569902242809 M613.591643600399,232.1569902242809 L621.0398891758464,252.82062210907816 M621.0398891758464,252.82062210907816 L631.6593267008611,272.7895114370649 M631.6593267008611,272.7895114370649 L644.8328467772949,290.90323673213925 M644.8328467772949,290.90323673213925 L659.794912781349,306.10917205741 M659.794912781349,306.10917205741 L675.6760652990038,317.52364459738556 M380.1444772345003,488.15560391762847 L396.02165184270007,495.11673803261283 M396.02165184270007,495.11673803261283 L410.9719956389713,497.2182290600822 M410.9719956389713,497.2182290600822 L424.1266594392241,494.3378658116462 M424.1266594392241,494.3378658116462 L434.7211023165446,486.64293479988055 M434.7211023165446,486.64293479988055 L442.13956114410394,474.580555165654 M442.13956114410394,474.580555165654 L445.9508256660097,458.85169155291715 M445.9508256660097,458.85169155291715 L445.93332514939675,440.37042943045526 M445.93332514939675,440.37042943045526 L442.08802321332814,420.2108639882513 M442.08802321332814,420.2108639882513 L434.6383740670394,399.5446651510629 M434.6383740670394,399.5446651510629 L424.0173399199707,379.57297523601756 M424.0173399199707,379.57297523601756 L410.8422164113831,361.45657009571005 M410.8422164113831,361.45657009571005 L395.8787714095438,346.24838300150805 M395.8787714095438,346.24838300150805 L379.99669550832095,334.8322944712222 M675.6760652990038,317.52364459738556 L691.5534122815538,324.4832667233609 M691.5534122815538,324.4832667233609 L706.5042572343127,326.5835283774654 M706.5042572343127,326.5835283774654 L719.6597218539678,323.7022898281298 M719.6597218539678,323.7022898281298 L730.2552186822086,316.0068884736029 M730.2552186822086,316.0068884736029 L737.6749233495661,303.944470804699 M737.6749233495661,303.944470804699 L741.4875532039478,288.2160036892592 M741.4875532039478,288.2160036892592 L741.4714581688249,269.7355495609172 M741.4714581688249,269.7355495609172 L737.6275201817107,249.57715665197065 M737.6275201817107,249.57715665197065 L730.1791141798644,228.91242673619308 M730.1791141798644,228.91242673619308 L719.5591301177292,208.9424167486477 M719.5591301177292,208.9424167486477 L706.3848025979682,190.82780489514107 M706.3848025979682,190.82780489514107 L691.4218532206564,175.6214202119695 M691.4218532206564,175.6214202119695 L675.5399437694837,164.20703845714252" stroke="black"  stroke-width="4"  fill="red"/>
<path d="M380.1444772345003,488.15560391762847 L675.6760652990038,317.52364459738556 M379.99669550832095,334.8322944712222 L675.5399437694837,164.20703845714252 M380.1444772345003,488.15560391762847 L396.02165184270007,495.11673803261283 M396.02165184270007,495.11673803261283 L410.9719956389713,497.2182290600822 M410.9719956389713,497.2182290600822 L424.1266594392241,494.3378658116462 M424.1266594392241,494.3378658116462 L434.7211023165446,486.64293479988055 M434.7211023165446,486.64293479988055 L442.13956114410394,474.580555165654 M442.13956114410394,474.580555165654 L445.9508256660097,458.85169155291715 M445.9508256660097,458.85169155291715 L445.93332514939675,440.37042943045526 M445.93332514939675,440.37042943045526 L442.08802321332814,420.2108639882513 M442.08802321332814,420.2108639882513 L434.6383740670394,399.5446651510629 M434.6383740670394,399.5446651510629 L424.0173399199707,379.57297523601756 M424.0173399199707,379.57297523601756 L410.8422164113831,361.45657009571005 M410.8422164113831,361.45657009571005 L395.8787714095438,346.24838300150805 M395.8787714095438,346.24838300150805 L379.99669550832095,334.8322944712222 M675.6760652990038,317.52364459738556 L691.5534122815538,324.4832667233609 M691.5534122815538,324.4832667233609 L706.5042572343127,326.5835283774654 M706.5042572343127,326.5835283774654 L719.6597218539678,323.7022898281298 M719.6597218539678,323.7022898281298 L730.2552186822086,316.0068884736029 M730.2552186822086,316.0068884736029 L737.6749233495661,303.944470804699 M737.6749233495661,303.944470804699 L741.4875532039478,288.2160036892592 M741.4875532039478,288.2160036892592 L741.4714581688249,269.7355495609172 M741.4714581688249,269.7355495609172 L737.6275201817107,249.57715665197065 M737.6275201817107,249.57715665197065 L730.1791141798644,228.91242673619308 M730.1791141798644,228.91242673619308 L719.5591301177292,208.9424167486477 M719.5591301177292,208.9424167486477 L706.3848025979682,190.82780489514107 M706.3848025979682,190.82780489514107 L691.4218532206564,175.6214202119695 M691.4218532206564,175.6214202119695 L675.5399437694837,164.20703845714252 M379.99669550832095,334.8322944712222 L364.11906383745054,327.87177053276855 M364.11906383745054,327.87177053276855 L349.1686675828428,325.77126933388763 M349.1686675828428,325.77126933388763 L336.014367946088,328.65277530545654 M336.014367946088,328.65277530545654 L325.42062242864176,336.34874015081687 M325.42062242864176,336.34874015081687 L318.00303440073367,348.4118078904139 M318.00303440073367,348.4118078904139 L314.19261462844634,364.14085624352856 M314.19261462844634,364.14085624352856 L314.2107403226346,382.6217574195498 M314.2107403226346,382.6217574195498 L318.0563046435391,402.78049891700084 M318.0563046435391,402.78049891700084 L325.50579327291143,423.44559956689045 M325.50579327291143,423.44559956689045 L336.12628077387353,443.4161686337061 M336.12628077387353,443.4161686337061 L349.30059673664664,461.53168703777874 M349.30059673664664,461.53168703777874 L364.263158292717,476.7394246478807 M364.263158292717,476.7394246478807 L380.1444772345003,488.15560391762847 M675.5399437694837,164.20703845714252 L659.6621396976575,157.24802646240505 M659.6621396976575,157.24802646240505 L644.7112422135251,155.14875451099397 M644.7112422135251,155.14875451099397 L631.556141654632,158.0311356058046 M631.556141654632,158.0311356058046 L620.9613420773626,165.72757060520598 M620.9613420773626,165.72757060520598 L613.542508119539,177.79067622293132 M613.542508119539,177.79067622293132 L609.7307229640874,193.51932799023325 M609.7307229640874,193.51932799023325 L609.7474431771384,211.9994211719304 M609.7474431771384,211.9994211719304 L613.591643600399,232.1569902242809 M613.591643600399,232.1569902242809 L621.0398891758464,252.82062210907816 M621.0398891758464,252.82062210907816 L631.6593267008611,272.7895114370649 M631.6593267008611,272.7895114370649 L644.8328467772949,290.90323673213925 M644.8328467772949,290.90323673213925 L659.794912781349,306.10917205741 M659.794912781349,306.10917205741 L675.6760652990038,317.52364459738556" stroke="black"  stroke-width="4"  fill="red"/></svg>