<svg viewBox="0 0 800 800" xmlns="http://www.w3.org/2000/svg"><path d="M380.12234659396347,564.7107307713817 L114.64919793774118,717.9937927180745 M380.0991215116052,258.2210382228667 L114.60506332953878,411.49203417424326 M380.12234659396347,564.7107307713817 L411.88022689562445,578.598277762909 M411.88022689562445,578.598277762909 L441.79253090632886,582.7735296272905 M441.79253090632886,582.7735296272905 L468.1208944338275,576.993506846994 M468.1208944338275,576.993506846994 L489.3350675102703,561.5937092482546 M489.3350675102703,561.5937092482546 L504.20193549158057,537.4687764964865 M504.20193549158057,537.4687764964865 L511.8571887320781,506.0205309125531 M511.8571887320781,506.0205309125531 L511.8556397151569,469.07656114045506 M511.8556397151569,469.07656114045506 L504.1971646556395,428.78404093907125 M504.1971646556395,428.78404093907125 L489.326759683208,387.48490416661286 M489.326759683208,387.48490416661286 L468.10869711644574,347.5796896073243 M468.10869711644574,347.5796896073243 L441.7762661434191,311.3879218645433 M441.7762661434191,311.3879218645433 L411.86010479158676,281.0132331412209 M411.86010479158676,281.0132331412209 L380.0991215116052,258.2210382228667 M114.64919793774118,717.9937927180745 L146.40677385491955,731.8840531639455 M146.40677385491955,731.8840531639455 L176.3181836646541,736.0615103199123 M176.3181836646541,736.0615103199123 L202.64511512020394,730.2830564674074 M202.64511512020394,730.2830564674074 L223.8574014480774,714.8841001956366 M223.8574014480774,714.8841001956366 L238.7220376220164,690.7592322186719 M238.7220376220164,690.7592322186719 L246.3748436735615,659.3102710447578 M246.3748436735615,659.3102710447578 L246.37077429189563,622.3648468777855 M246.37077429189563,622.3648468777855 L238.70985216636316,582.0702180008085 M238.70985216636316,582.0702180008085 L223.8372156565955,540.7684408478364 M223.8372156565955,540.7684408478364 L202.61726679814234,500.86020770102823 M202.61726679814234,500.86020770102823 L176.28340443720617,464.66521864986134 M176.28340443720617,464.66521864986134 L146.36634981883066,434.28729316356964 M146.36634981883066,434.28729316356964 L114.60506332953878,411.49203417424326 M380.0991215116052,258.2210382228667 L348.3394117233047,244.33592981617107 M348.3394117233047,244.33592981617107 L318.4268944713652,240.1646313785007 M318.4268944713652,240.1646313785007 L292.09998279874634,245.94921674612345 M292.09998279874634,245.94921674612345 L270.8885940708807,261.35314085909454 M270.8885940708807,261.35314085909454 L256.0252050717167,285.4808187178541 M256.0252050717167,285.4808187178541 L248.3733284536417,316.9297991301192 M248.3733284536417,316.9297991301192 L248.3773781895429,353.87232511144987 M248.3773781895429,353.87232511144987 L256.03690517981977,394.16155365813995 M256.03690517981977,394.16155365813995 L270.90667231089697,435.4563049901998 M270.90667231089697,435.4563049901998 L292.12255338624317,475.35704497549546 M292.12255338624317,475.35704497549546 L318.45175896896444,511.54527408209253 M318.45175896896444,511.54527408209253 L348.36438993262414,541.9181707641521 M348.36438993262414,541.9181707641521 L380.12234659396347,564.7107307713817 M114.60506332953878,411.49203417424326 L82.84565802014822,397.6042124764208 M82.84565802014822,397.6042124764208 L52.93403523053723,393.43070919959257 M52.93403523053723,393.43070919959257 L26.608555998282952,399.21372627741596 M26.608555998282952,399.21372627741596 L5.399054410060273,414.6168097408191 M5.399054410060273,414.6168097408191 L-9.462102457591811,438.7444233864003 M-9.462102457591811,438.7444233864003 L-17.11153170376292,470.19411970583405 M-17.11153170376292,470.19411970583405 L-17.104961603266986,507.13810008212545 M-17.104961603266986,507.13810008212545 L-9.442987730192215,547.4294369873742 M-9.442987730192215,547.4294369873742 L5.429010613910123,588.726828138421 M5.429010613910123,588.726828138421 L26.646777589837654,628.6305860338563 M26.646777589837654,628.6305860338563 L52.9774141921589,664.8220358107858 M52.9774141921589,664.8220358107858 L82.89093816122767,695.1981688032578 M82.89093816122767,695.1981688032578 L114.64919793774118,717.9937927180745" stroke="black"  stroke-width="4"  fill="red"/>
<path d="M567.4032308941382,456.57554823060593 L685.364770882321,388.46505896696 M685.364770882321,388.46505896696 L717.1230006208182,402.34948632968315 M717.1230006208182,402.34948632968315 L747.036332155932,406.52220290344644 M747.036332155932,406.52220290344644 L773.3663416049476,400.740376555716 M773.3663416049476,400.740376555716 L794.5826833823519,385.3396119946427 M794.5826833823519,385.3396119946427 L809.4521168451661,361.2146051469076 M809.4521168451661,361.2146051469076 L817.1101832826554,329.7671826949098 M817.1101832826554,329.7671826949098 L817.1115317037629,292.8248854769378 M817.1115317037629,292.8248854769378 L809.4558699346583,252.53479004906347 M809.4558699346583,252.53479004906347 L794.5880305891509,211.2386893191548 M794.5880305891509,211.2386893191548 L773.3721368485803,171.33694557182338 M773.3721368485803,171.33694557182338 L747.041351817952,135.14888163412195 M747.041351817952,135.14888163412195 L717.1262178334391,104.77791439345083 M717.1262178334391,104.77791439345083 L685.3655836130115,81.98924231295632 M685.3655836130115,81.98924231295632 L653.6055242794225,68.10725334734894 M653.6055242794225,68.10725334734894 L623.6919792026736,63.938489680087855 M623.6919792026736,63.938489680087855 L597.3634211850082,69.72487788161624 M597.3634211850082,69.72487788161624 L576.149863306547,85.12976817811636 M576.149863306547,85.12976817811636 L561.2839084531463,109.25751948717567 M561.2839084531463,109.25751948717567 L553.6292184276369,140.7056764028908 M553.6292184276369,140.7056764028908 L553.6303707255669,177.6465298300621 M553.6303707255669,177.6465298300621 L561.2870846359751,217.93333396779866 M561.2870846359751,217.93333396779866 L576.154286512926,259.2250499029383 M576.154286512926,259.2250499029383 L597.3679992117283,299.1223198550738 M597.3679992117283,299.1223198550738 L623.6955592755405,335.306845890143 M623.6955592755405,335.306845890143 L653.607163172195,365.6760216098097 M653.607163172195,365.6760216098097 L685.364770882321,388.46505896696 M567.4032308941382,456.57554823060593 L535.645488276874,433.78514956967217 M535.645488276874,433.78514956967217 L505.7334874320373,403.41453589755565 M505.7334874320373,403.41453589755565 L479.40529143832407,367.22857881230675 M479.40529143832407,367.22857881230675 L458.19074077141806,327.3299678559098 M458.19074077141806,327.3299678559098 L443.32254757309397,286.0370788705033 M443.32254757309397,286.0370788705033 L435.66474658790224,245.74933778884696 M435.66474658790224,245.74933778884696 L435.6624746315284,208.80783796389431 M435.6624746315284,208.80783796389431 L443.3160774854431,177.35936276284332 M443.3160774854431,177.35936276284332 L458.18104084338063,153.23163979031028 M458.18104084338063,153.23163979031028 L479.39376053711345,137.82712282665358 M479.39376053711345,137.82712282665358 L505.72168240801375,132.0414312839016 M505.72168240801375,132.0414312839016 L535.6348303600612,136.2111744718914 M535.6348303600612,136.2111744718914 L567.3947546804432,150.09436891170265 M567.3947546804432,150.09436891170265 L599.1555238498895,172.8844023685379 M599.1555238498895,172.8844023685379 L629.0710548986494,203.25680776270184 M629.0710548986494,203.25680776270184 L655.4024760228378,239.44630303405455 M655.4024760228378,239.44630303405455 L676.6192079052726,279.34938808660763 M676.6192079052726,279.34938808660763 L691.4880387162093,320.64666211628594 M691.4880387162093,320.64666211628594 L699.1447876414475,360.93769462896705 M699.1447876414475,360.93769462896705 L699.1445588787915,397.8806382447159 M699.1445588787915,397.8806382447159 L691.4875795315602,429.328378841155 M691.4875795315602,429.328378841155 L676.6191374201616,453.4533571028561 M676.6191374201616,453.4533571028561 L655.4036336537267,468.85374803012473 M655.4036336537267,468.85374803012473 L629.0742601878123,474.6348774356102 M629.0742601878123,474.6348774356102 L599.1613256613236,470.46118114008164 M599.1613256613236,470.46118114008164 L567.4032308941382,456.57554823060593 M567.4013709503243,389.32408501785676 L549.5813763122837,376.53618949032693 M549.5813763122837,376.53618949032693 L532.7969852973729,359.49468147149514 M532.7969852973729,359.49468147149514 L518.0235461171824,339.1898990804037 M518.0235461171824,339.1898990804037 L506.11955423897166,316.8017966224112 M506.11955423897166,316.8017966224112 L497.776768807524,293.63135930154186 M497.776768807524,293.63135930154186 L493.48002538382127,271.02505546345895 M493.48002538382127,271.02505546345895 L493.47905844661597,250.29659144028125 M493.47905844661597,250.29659144028125 L497.7739914913139,232.65058865480728 M497.7739914913139,232.65058865480728 L506.11531443719457,219.11259283109501 M506.11531443719457,219.11259283109501 L518.0183531854829,210.4694612971665 M518.0183531854829,210.4694612971665 L532.7914202152891,207.22360168534635 M532.7914202152891,207.22360168534635 L549.575993964572,209.56377948299053 M549.575993964572,209.56377948299053 L567.3966148529064,217.3540995900695 M567.3966148529064,217.3540995900695 L585.2175623878113,230.14188013420232 M585.2175623878113,230.14188013420232 L602.0030648722274,247.18395226883803 M602.0030648722274,247.18395226883803 L616.7775194705928,267.4898486429276 M616.7775194705928,267.4898486429276 L628.6821980955101,289.8793597505135 M628.6821980955101,289.8793597505135 L637.0251842764148,313.05117768358343 M637.0251842764148,313.05117768358343 L641.3215964631206,335.6585178144035 M641.3215964631206,335.6585178144035 L641.3217760597776,356.387436408858 M641.3217760597776,356.387436408858 L637.025779941026,374.03320790745397 M637.025779941026,374.03320790745397 L628.6833617247348,387.5703395708797 M628.6833617247348,387.5703395708797 L616.7794464231727,396.21217204008894 M616.7794464231727,396.21217204008894 L602.00592236487,399.4565952824812 M602.00592236487,399.4565952824812 L585.2214158117405,397.11517286609774 M585.2214158117405,397.11517286609774 L567.4013709503243,389.32408501785676 M685.3649492206071,321.21477234433155 L703.1850698209234,329.0051837557422 M703.1850698209234,329.0051837557422 L719.9697991542478,331.34605646406715 M719.9697991542478,331.34605646406715 L734.7436800900339,328.1012421946739 M734.7436800900339,328.1012421946739 L746.6480656301311,319.4592001122405 M746.6480656301311,319.4592001122405 L754.991040122439,305.9220524396493 M754.991040122439,305.9220524396493 L759.2876462296879,288.27645947299146 M759.2876462296879,288.27645947299146 L759.2880948858369,267.54790357951754 M759.2880948858369,267.54790357951754 L754.9922927045582,244.9410892399054 M754.9922927045582,244.9410892399054 L746.6498628281666,221.76992962757754 M746.6498628281666,221.76992962757754 L734.7456544724367,199.38117110424895 M734.7456544724367,199.38117110424895 L719.9715567732285,179.07607783250262 M719.9715567732285,179.07607783250262 L703.1862770716318,162.0348126370008 M703.1862770716318,162.0348126370008 L685.3654052528024,149.24779596722328 M685.3654052528024,149.24779596722328 L667.5447086123776,141.45815227413317 M667.5447086123776,141.45815227413317 L650.759912046354,139.11852412125216 M650.759912046354,139.11852412125216 L635.986488087535,142.36477467082443 M635.986488087535,142.36477467082443 L624.0829790460045,151.0081157232206 M624.0829790460045,151.0081157232206 L615.7410997787545,164.54612747754214 M615.7410997787545,164.54612747754214 L611.4455567199508,182.1919516867178 M611.4455567199508,182.1919516867178 L611.4458954043525,202.9200530089136 M611.4458954043525,202.9200530089136 L615.7420288482409,225.5258311001461 M615.7420288482409,225.5258311001461 L624.0842580205308,248.69561017882813 M624.0842580205308,248.69561017882813 L635.9877796842617,271.0829601473193 M635.9877796842617,271.0829601473193 L650.7608620168226,291.38693952531753 M650.7608620168226,291.38693952531753 L667.5450302854565,308.42764066831285 M667.5450302854565,308.42764066831285 L685.3649492206071,321.21477234433155 M567.4013709503243,389.32408501785676 L685.3649492206071,321.21477234433155" stroke="black"  stroke-width="4"  fill="red"/>
<path d="M380.117250291574,497.4573997220484 L675.0434661536757,327.17414665094515 M380.10421844053633,325.48263742682263 L675.0434661536757,155.20690698191328 M380.117250291574,497.4573997220484 L397.9371748060621,505.2495615689513 M397.9371748060621,505.2495615689513 L414.72132754716085,507.59185679307257 M414.72132754716085,507.59185679307257 L429.4942848855659,504.3480544347424 M429.4942848855659,504.3480544347424 L441.39745348841984,495.7065548302477 M441.39745348841984,495.7065548302477 L449.7389884146928,482.16944865408664 M449.7389884146928,482.16944865408664 L454.0340159797852,464.52339377351814 M454.0340159797852,464.52339377351814 L454.0328388512462,443.7938993913227 M454.0328388512462,443.7938993913227 L449.7354581272334,421.1857245296069 M449.7354581272334,421.1857245296069 L441.3915886950166,398.0128614397586 M441.3915886950166,398.0128614397586 L429.486163442514,375.6221555010368 M429.486163442514,375.6221555010368 L414.711142238509,355.31498407334743 M414.711142238509,355.31498407334743 L397.9252861068022,338.2716307766808 M397.9252861068022,338.2716307766808 L380.10421844053633,325.48263742682263 M675.0434661536757,327.17414665094515 L692.8635801290043,334.9646172475576 M692.8635801290043,334.9646172475576 L709.6482899719485,337.30553805249275 M709.6482899719485,337.30553805249275 L724.4221396843951,334.0607579954584 M724.4221396843951,334.0607579954584 L736.326484082414,325.41873425216477 M736.326484082414,325.41873425216477 L744.6694099044971,311.88158797896233 M744.6694099044971,311.88158797896233 L748.9659626415837,294.2359793900327 M748.9659626415837,294.2359793900327 L748.9663563291253,273.50739176022427 M748.9663563291253,273.50739176022427 L744.6705007753628,250.90053141461095 M744.6705007753628,250.90053141461095 L736.3280222246215,227.7293142006336 M736.3280222246215,227.7293142006336 L724.4237727218033,205.3404898282016 M724.4237727218033,205.3404898282016 L709.6496437944697,185.03532628750554 M709.6496437944697,185.03532628750554 L692.864344598981,167.99399048767555 M692.864344598981,167.99399048767555 L675.0434661536757,155.20690698191328 M380.10421844053633,325.48263742682263 L362.28371792008545,317.69124335734153 M362.28371792008545,317.69124335734153 L345.4994980408669,315.3501928524498 M345.4994980408669,315.3501928524498 L330.72699781277566,318.59543172190723 M330.72699781277566,318.59543172190723 L318.82470585005376,327.2382305415682 M318.82470585005376,327.2382305415682 L310.484266266192,340.77620100274504 M310.484266266192,340.77620100274504 L306.1903018158016,358.42248724062847 M306.1903018158016,358.42248724062847 L306.19226628487326,379.1515270515564 M306.19226628487326,379.1515270515564 L310.48997820520685,401.75866555011373 M310.48997820520685,401.75866555011373 L318.83364681594827,424.93014790304255 M318.83364681594827,424.93014790304255 L330.7383852348821,447.3194450417261 M330.7383852348821,447.3194450417261 L345.5123909389059,467.62550234471166 M345.5123909389059,467.62550234471166 L362.2971355430975,484.6682914250706 M362.2971355430975,484.6682914250706 L380.117250291574,497.4573997220484 M675.0434661536757,155.20690698191328 L657.2227761393924,147.41720410561982 M657.2227761393924,147.41720410561982 L640.4379990669463,145.0775278616668 M640.4379990669463,145.0775278616668 L625.6646063359756,148.3237442066893 M625.6646063359756,148.3237442066893 L613.7611384413099,156.96706692823636 M613.7611384413099,156.96706692823636 L605.4193078482531,170.50507729004244 M605.4193078482531,170.50507729004244 L601.1238181618525,188.15091712537105 M601.1238181618525,188.15091712537105 L601.1242118148616,208.87905018390148 M601.1242118148616,208.87905018390148 L605.4203986289929,231.48487427725388 M605.4203986289929,231.48487427725388 L613.7626764716645,254.65471095071206 M613.7626764716645,254.65471095071206 L625.6662392776968,277.0421267600159 M625.6662392776968,277.0421267600159 L640.4393528338744,297.34617639915484 M640.4393528338744,297.34617639915484 L657.2235405932031,314.3869481409402 M657.2235405932031,314.3869481409402 L675.0434661536757,327.17414665094515 M380.10492812512155,334.8479867913786 L675.0434661536757,164.57184664734592 M380.1165406662872,488.09283288745746 L675.0434661536757,317.80998941278784 M380.10492812512155,334.8479867913786 L364.2253019266811,327.9051277278451 M364.2253019266811,327.9051277278451 L349.2690699523269,325.8189842962905 M349.2690699523269,325.8189842962905 L336.1054326281827,328.7107066397588 M336.1054326281827,328.7107066397588 L325.4993902244311,336.412152886935 M325.4993902244311,336.412152886935 L318.06726087225627,348.47564869694463 M318.06726087225627,348.47564869694463 L314.2409005193729,364.20004706667044 M314.2409005193729,364.20004706667044 L314.24261283410556,382.67149053087223 M314.24261283410556,382.67149053087223 L318.072244862951,402.8165162362909 M318.072244862951,402.8165162362909 L325.50720816154364,423.4644400386521 M325.50720816154364,423.4644400386521 L336.11542136472804,443.41536930601956 M336.11542136472804,443.41536930601956 L349.2804272932903,461.50992615679183 M349.2804272932903,461.50992615679183 L364.2371840353273,476.69659849795937 M364.2371840353273,476.69659849795937 L380.1165406662872,488.09283288745746 M675.0434661536757,164.57184664734592 L659.1636711005882,157.63049459023023 M659.1636711005882,157.63049459023023 L644.2069426217456,155.54557575521847 M644.2069426217456,155.54557575521847 L631.0425100045866,158.43816912764373 M631.0425100045866,158.43816912764373 L620.4354197470412,166.14008222912724 M620.4354197470412,166.14008222912724 L613.0020508871877,178.20361360379633 M613.0020508871877,178.20361360379633 L609.1743314163405,193.92761419490785 M609.1743314163405,193.92761419490785 L609.1746439940022,212.3982496619331 M609.1746439940022,212.3982496619331 L613.0029170143403,232.5421041094964 M613.0029170143403,232.5421041094964 L620.4366410091138,253.18856145512012 M620.4366410091138,253.18856145512012 L631.0438066295259,273.13781427899903 M631.0438066295259,273.13781427899903 L644.208017568937,291.2305821116368 M644.208017568937,291.2305821116368 L659.1642781080425,306.41545681666247 M659.1642781080425,306.41545681666247 L675.0434661536757,317.80998941278784 M380.1165406662872,488.09283288745746 L395.99570949306803,495.0363015971967 M395.99570949306803,495.0363015971967 L410.95188815711333,497.1234333854279 M410.95188815711333,497.1234333854279 L424.11588844497726,494.232851688791 M424.11588844497726,494.232851688791 L434.72262693587317,486.5324370701726 M434.72262693587317,486.5324370701726 L442.1556260335841,474.46962753691037 M442.1556260335841,474.46962753691037 L445.9828305420717,458.74541287426655 M445.9828305420717,458.74541287426655 L445.9817434070818,440.2736084623725 M445.9817434070818,440.2736084623725 L442.15237436092434,420.1277598432814 M442.15237436092434,420.1277598432814 L434.7172516019924,399.47873968082286 M434.7172516019924,399.47873968082286 L424.1084930259551,379.52669176995994 M424.1084930259551,379.52669176995994 L410.9426807498187,361.4312502601432 M410.9426807498187,361.4312502601432 L395.98504141074073,346.2441299086597 M395.98504141074073,346.2441299086597 L380.10492812512155,334.8479867913786 M675.0434661536757,317.80998941278784 L690.9228038089067,324.75195107076735 M690.9228038089067,324.75195107076735 L705.8794789048793,326.8378581368011 M705.8794789048793,326.8378581368011 L719.0442743834556,323.94640523402563 M719.0442743834556,323.94640523402563 L729.6520606195375,316.245523572982 M729.6520606195375,316.245523572982 L737.086299134895,304.18267831910106 M737.086299134895,304.18267831910106 L740.914862710515,288.45886134699987 M740.914862710515,288.45886134699987 L740.9151753126105,269.9878649322741 M740.9151753126105,269.9878649322741 L737.0871653258171,249.8431876590954 M737.0871653258171,249.8431876590954 L729.6532819607528,229.19563410932403 M729.6532819607528,229.19563410932403 L719.0455710760991,209.24526283006554 M719.0455710760991,209.24526283006554 L705.8805538914062,191.15161051557067 M705.8805538914062,191.15161051557067 L690.9234108277992,175.9662879258961 M690.9234108277992,175.9662879258961 L675.0434661536757,164.57184664734592" stroke="black"  stroke-width="4"  fill="red"/>
<path d="M380.1165406662872,488.09283288745746 L675.0434661536757,317.80998941278784 M380.10492812512155,334.8479867913786 L675.0434661536757,164.57184664734592 M380.1165406662872,488.09283288745746 L395.99570949306803,495.0363015971967 M395.99570949306803,495.0363015971967 L410.95188815711333,497.1234333854279 M410.95188815711333,497.1234333854279 L424.11588844497726,494.232851688791 M424.11588844497726,494.232851688791 L434.72262693587317,486.5324370701726 M434.72262693587317,486.5324370701726 L442.1556260335841,474.46962753691037 M442.1556260335841,474.46962753691037 L445.9828305420717,458.74541287426655 M445.9828305420717,458.74541287426655 L445.9817434070818,440.2736084623725 M445.9817434070818,440.2736084623725 L442.15237436092434,420.1277598432814 M442.15237436092434,420.1277598432814 L434.7172516019924,399.47873968082286 M434.7172516019924,399.47873968082286 L424.1084930259551,379.52669176995994 M424.1084930259551,379.52669176995994 L410.9426807498187,361.4312502601432 M410.9426807498187,361.4312502601432 L395.98504141074073,346.2441299086597 M395.98504141074073,346.2441299086597 L380.10492812512155,334.8479867913786 M675.0434661536757,317.80998941278784 L690.9228038089067,324.75195107076735 M690.9228038089067,324.75195107076735 L705.8794789048793,326.8378581368011 M705.8794789048793,326.8378581368011 L719.0442743834556,323.94640523402563 M719.0442743834556,323.94640523402563 L729.6520606195375,316.245523572982 M729.6520606195375,316.245523572982 L737.086299134895,304.18267831910106 M737.086299134895,304.18267831910106 L740.914862710515,288.45886134699987 M740.914862710515,288.45886134699987 L740.9151753126105,269.9878649322741 M740.9151753126105,269.9878649322741 L737.0871653258171,249.8431876590954 M737.0871653258171,249.8431876590954 L729.6532819607528,229.19563410932403 M729.6532819607528,229.19563410932403 L719.0455710760991,209.24526283006554 M719.0455710760991,209.24526283006554 L705.8805538914062,191.15161051557067 M705.8805538914062,191.15161051557067 L690.9234108277992,175.9662879258961 M690.9234108277992,175.9662879258961 L675.0434661536757,164.57184664734592 M380.10492812512155,334.8479867913786 L364.2253019266811,327.9051277278451 M364.2253019266811,327.9051277278451 L349.2690699523269,325.8189842962905 M349.2690699523269,325.8189842962905 L336.1054326281827,328.7107066397588 M336.1054326281827,328.7107066397588 L325.4993902244311,336.412152886935 M325.4993902244311,336.412152886935 L318.06726087225627,348.47564869694463 M318.06726087225627,348.47564869694463 L314.2409005193729,364.20004706667044 M314.2409005193729,364.20004706667044 L314.24261283410556,382.67149053087223 M314.24261283410556,382.67149053087223 L318.072244862951,402.8165162362909 M318.072244862951,402.8165162362909 L325.50720816154364,423.4644400386521 M325.50720816154364,423.4644400386521 L336.11542136472804,443.41536930601956 M336.11542136472804,443.41536930601956 L349.2804272932903,461.50992615679183 M349.2804272932903,461.50992615679183 L364.2371840353273,476.69659849795937 M364.2371840353273,476.69659849795937 L380.1165406662872,488.09283288745746 M675.0434661536757,164.57184664734592 L659.1636711005882,157.63049459023023 M659.1636711005882,157.63049459023023 L644.2069426217456,155.54557575521847 M644.2069426217456,155.54557575521847 L631.0425100045866,158.43816912764373 M631.0425100045866,158.43816912764373 L620.4354197470412,166.14008222912724 M620.4354197470412,166.14008222912724 L613.0020508871877,178.20361360379633 M613.0020508871877,178.20361360379633 L609.1743314163405,193.92761419490785 M609.1743314163405,193.92761419490785 L609.1746439940022,212.3982496619331 M609.1746439940022,212.3982496619331 L613.0029170143403,232.5421041094964 M613.0029170143403,232.5421041094964 L620.4366410091138,253.18856145512012 M620.4366410091138,253.18856145512012 L631.0438066295259,273.13781427899903 M631.0438066295259,273.13781427899903 L644.208017568937,291.2305821116368 M644.208017568937,291.2305821116368 L659.1642781080425,306.41545681666247 M659.1642781080425,306.41545681666247 L675.0434661536757,317.80998941278784" stroke="black"  stroke-width="4"  fill="red"/></svg>