<svg viewBox="0 0 800 800" xmlns="http://www.w3.org/2000/svg"><path d="M380.13335648481797,564.7217915242426 L114.60119720860894,718.0389259508257 M380.08062382813847,258.21507068154676 L114.52754572992376,411.5201391142094 M380.13335648481797,564.7217915242426 L411.8908073141994,578.6131677823694 M411.8908073141994,578.6131677823694 L441.8018494977379,582.7915317696235 M441.8018494977379,582.7915317696235 L468.12819214466066,577.0137230502775 M468.12819214466066,577.0137230502775 L489.3397026875458,561.6151126974484 M489.3397026875458,561.6151126974484 L504.20342117230666,537.4902712984319 M504.20342117230666,537.4902712984319 L511.8552209520133,506.04101579706116 M511.8552209520133,506.04101579706116 L511.8501151901568,469.0949934911206 M511.8501151901568,469.0949934911206 L504.1881868067668,428.79949742533813 M504.1881868067668,428.79949742533813 L489.3146326478443,387.49663444278474 M489.3146326478443,387.49663444278474 L468.093908090939,347.5871599500714 M468.093908090939,347.5871599500714 L441.75945707689436,311.3908462025464 M441.75945707689436,311.3908462025464 L411.8420350736843,281.01158967882384 M411.8420350736843,281.01158967882384 L380.08062382813847,258.21507068154676 M114.60119720860894,718.0389259508257 L146.35834296219815,731.9330166265537 M146.35834296219815,731.9330166265537 L176.26849002352247,736.1135868127666 M176.26849002352247,736.1135868127666 L202.59339950084006,730.33734781996 M202.59339950084006,730.33734781996 L223.8030220848653,714.9395794377853 M223.8030220848653,714.9395794377853 L238.6645075096573,690.8148032647676 M238.6645075096573,690.8148032647676 L246.313858878301,659.3648324058794 M246.313858878301,659.3648324058794 L246.30623163110573,622.4173557052709 M246.30623163110573,622.4173557052709 L238.6418552277591,582.119750731826 M238.6418552277591,582.119750731826 L223.76606879966562,540.8142469179047 M223.76606879966562,540.8142469179047 L202.54345748388914,500.90175319424725 M202.54345748388914,500.90175319424725 L176.2075749065731,464.70221733975256 M176.2075749065731,464.70221733975256 L146.28925976347267,434.31972314575 M146.28925976347267,434.31972314575 L114.52754572992376,411.5201391142094 M380.08062382813847,258.21507068154676 L348.3213436453869,244.3261332385796 M348.3213436453869,244.3261332385796 L318.41008858945617,240.1517233165049 M318.41008858945617,240.1517233165049 L292.08519831733236,245.93409552352045 M292.08519831733236,245.93409552352045 L270.8764726749128,261.3368333465419 M270.8764726749128,261.3368333465419 L256.01623362972447,285.4644206451288 M256.01623362972447,285.4644206451288 L248.36781073061394,316.91441142245844 M248.36781073061394,316.91441142245844 L248.37541721122682,353.8589899377605 M248.37541721122682,353.8589899377605 L256.03839726680644,394.15119390145094 M256.03839726680644,394.15119390145094 L270.91131312669444,435.4496706511734 M270.91131312669444,435.4496706511734 L292.1298556402416,475.35466961396435 M292.1298556402416,475.35466961396435 L318.46108074422006,511.54744382487036 M318.46108074422006,511.54744382487036 L348.37497199074954,541.9249076686687 M348.37497199074954,541.9249076686687 L380.13335648481797,564.7217915242426 M114.52754572992376,411.5201391142094 L82.76857071755057,397.6284874168384 M82.76857071755057,397.6284874168384 L52.858211045378425,393.4518717483264 M52.858211045378425,393.4518717483264 L26.534754311445113,399.23267486698035 M26.534754311445113,399.23267486698035 L5.327917019073311,414.63457139698323 M5.327917019073311,414.63457139698323 L-9.530088641971815,438.76209403142707 M-9.530088641971815,438.76209403142707 L-17.176062947123228,470.2128004836351 M-17.176062947123228,470.2128004836351 L-17.165934981453006,507.1588333937674 M-17.165934981453006,507.1588333937674 L-9.5005070893111,547.4531459480471 M-9.5005070893111,547.4531459480471 L5.374640715253349,588.7542629674666 M5.374640715253349,588.7542629674666 L26.595069596415897,628.6622804836053 M26.595069596415897,628.6622804836053 L52.92772589528079,664.8582761631875 M52.92772589528079,664.8582761631875 L82.84251002057692,695.2389772245016 M82.84251002057692,695.2389772245016 L114.60119720860894,718.0389259508257" stroke="black"  stroke-width="4"  fill="red"/>
<path d="M567.4558788295739,456.56256735440127 L685.4436208665252,388.43694913973013 M685.4436208665252,388.43694913973013 L717.2014219273591,402.3252046617423 M717.2014219273591,402.3252046617423 L747.113492694242,406.50103231532626 M747.113492694242,406.50103231532626 L773.4414825244119,400.72141911037977 M773.4414825244119,400.72141911037977 L794.6551631594738,385.32184105531474 M794.6551631594738,385.32184105531474 L809.5214485655979,361.19692504171724 M809.5214485655979,361.19692504171724 L817.1760629471232,329.74849240511867 M817.1760629471232,329.74849240511867 L817.1738559114415,292.8041426531347 M817.1738559114415,292.8041426531347 L809.5147419150538,252.5110716277036 M809.5147419150538,252.5110716277036 L794.6437542243415,211.21124520604167 M794.6437542243415,211.21124520604167 L773.4251990307001,171.30524226498858 M773.4251990307001,171.30524226498858 L747.0923941606844,135.1126332405978 M747.0923941606844,135.1126332405978 L717.175999379258,104.73709924255473 M717.175999379258,104.73709924255473 L685.4149367090234,81.94410419050178 M685.4149367090234,81.94410419050178 L653.6553061861845,68.0582872959551 M653.6553061861845,68.0582872959551 L623.743022246296,63.88641318723336 M623.743022246296,63.88641318723336 L597.4164843672008,69.67058914610755 M597.4164843672008,69.67058914610755 L576.2055881828386,85.0742938922898 M576.2055881828386,85.0742938922898 L561.3427818435159,109.201955159526 M561.3427818435159,109.201955159526 L553.6915441322078,140.65112270727036 M553.6915441322078,140.65112270727036 L553.6962518868543,177.5940286684954 M553.6962518868543,177.5940286684954 L561.3564177661799,217.88380795643445 M561.3564177661799,217.88380795643445 L576.2267675308652,259.17924879106056 M576.2267675308652,259.17924879106056 L597.4431411309645,299.08077698123736 M597.4431411309645,299.08077698123736 L623.7727205144911,335.26984720283656 M623.7727205144911,335.26984720283656 L653.6855848395378,365.64358904145274 M653.6855848395378,365.64358904145274 L685.4436208665252,388.43694913973013 M567.4558788295739,456.56256735440127 L535.697708082535,433.7678455246397 M535.697708082535,433.7678455246397 L505.7844468655775,403.3926653307766 M505.7844468655775,403.3926653307766 L479.4542314743365,367.2021637045051 M479.4542314743365,367.2021637045051 L458.2370196987541,327.2992942244713 M458.2370196987541,327.2992942244713 L443.36567828779675,286.0026801394695 M443.36567828779675,286.0026801394695 L435.7044249101448,245.71196380461265 M435.7044249101448,245.71196380461265 L435.69859699947517,208.76841144570358 M435.69859699947517,208.76841144570358 L443.3487469964857,177.3189257158134 M443.3487469964857,177.3189257158134 L458.2105612840564,153.19129298539542 M458.2105612840564,153.19129298539542 L479.4206187461464,137.78796185781903 M479.4206187461464,137.78796185781903 L505.74651999092197,132.00448291235585 M505.74651999092197,132.00448291235585 L535.6584063968847,136.17733694470974 M535.6584063968847,136.17733694470974 L567.4179015994132,150.06435974122098 M567.4179015994132,150.06435974122098 L599.1790990315369,172.8587165973721 M599.1790990315369,172.8587165973721 L629.0958908209336,203.2356891517976 M629.0958908209336,203.2356891517976 L655.4293318623567,239.42972986443874 M655.4293318623567,239.42972986443874 L676.6487254053068,279.33707439640546 M676.6487254053068,279.33707439640546 L691.5207048864283,320.6380743180098 M691.5207048864283,320.6380743180098 L699.1809064625713,360.9320825312626 M699.1809064625713,360.9320825312626 L699.184233654342,397.8770786808923 M699.184233654342,397.8770786808923 L691.5307069058022,429.3258293586654 M691.5307069058022,429.3258293586654 L676.6654134073677,453.4507165858347 M676.6654134073677,453.4507165858347 L655.4525713207681,468.8499207212285 M655.4525713207681,468.8499207212285 L629.1252179611787,474.62883662921274 M629.1252179611787,474.62883662921274 L599.2135446120628,470.4520288509183 M599.2135446120628,470.4520288509183 L567.4558788295739,456.56256735440127 M567.4475454490857,389.30736806585446 L549.6273105668195,376.51704673220206 M549.6273105668195,376.51704673220206 L532.8422122978898,359.47297630870605 M532.8422122978898,359.47297630870605 L518.0676399468564,339.1656438141971 M518.0676399468564,339.1656438141971 L506.1621548234615,316.77515173342215 M506.1621548234615,316.77515173342215 L497.8176028386412,293.60262412045097 M497.8176028386412,293.60262412045097 L493.5189222071624,270.99465078010155 M493.5189222071624,270.99465078010155 L493.51595998444634,250.26503505730795 M493.51595998444634,250.26503505730795 L497.8089556243757,232.6184653073144 M497.8089556243757,232.6184653073144 L506.1485116482515,219.08052021685944 M506.1485116482515,219.08052021685944 L518.050056657132,210.43805418706597 M518.050056657132,210.43805418706597 L532.8219899547069,207.1934361985942 M532.8219899547069,207.1934361985942 L549.6058558820205,209.53535960432555 M549.6058558820205,209.53535960432555 L567.4262360044672,217.32782787352096 M567.4262360044672,217.32782787352096 L585.247423825442,230.11803429634426 M585.247423825442,230.11803429634426 L602.0336336799023,247.16266903667804 M602.0336336799023,247.16266903667804 L616.8092216127379,267.47111579762986 M616.8092216127379,267.47111579762986 L628.7153936565836,289.86301682892054 M628.7153936565836,289.86301682892054 L637.0601465349193,313.0369253035541 M637.0601465349193,313.0369253035541 L641.3584960107711,335.6459350774935 M641.3584960107711,335.6459350774935 L641.3606708929801,356.37600537154026 M641.3606708929801,356.37600537154026 L637.0666120977,374.02234369376094 M637.0666120977,374.02234369376094 L628.7259606594025,387.55942437444025 M628.7259606594025,387.55942437444025 L616.8235389235138,396.2005910385865 M616.8235389235138,396.2005910385865 L602.0511484337859,399.44377237420247 M602.0511484337859,399.44377237420247 L585.2673495865382,397.1006041487336 M585.2673495865382,397.1006041487336 L567.4475454490857,389.30736806585446 M685.4373266739806,321.1829264410478 L703.2572067226215,328.9754858470792 M703.2572067226215,328.9754858470792 L720.041228579648,331.31810413839753 M720.041228579648,331.31810413839753 L734.8139762203987,328.07453157675525 M734.8139762203987,328.07453157675525 L746.716868496422,319.4331551389944 M746.716868496422,319.4331551389944 L755.0580765228697,305.8960583367186 M755.0580765228697,305.8960583367186 L759.3527456111742,288.2498984885017 M759.3527456111742,288.2498984885017 L759.351199260994,267.5201908953661 M759.351199260994,267.5201908953661 L755.0534600282583,244.9117069704355 M755.0534600282583,244.9117069704355 L746.7092636367759,221.73845692885516 M746.7092636367759,221.73845692885516 L734.803561978509,199.34730864211485 M734.803561978509,199.34730864211485 L720.0283309885073,179.03966518246273 M720.0283309885073,179.03966518246273 L703.2423438852894,161.9958376073173 M703.2423438852894,161.9958376073173 L685.4212316753951,149.2063952988617 M685.4212316753951,149.2063952988617 L667.6007756285474,141.4146036836754 M667.6007756285474,141.4146036836754 L650.8166866548828,139.0732301487859 M650.8166866548828,139.0732301487859 L636.0443961547325,142.31823927400922 M636.0443961547325,142.31823927400922 L624.142380550994,150.96091498262786 M624.142380550994,150.96091498262786 L615.8022678936109,164.49887611609063 M615.8022678936109,164.49887611609063 L611.5086619350561,182.1452673476963 M611.5086619350561,182.1452673476963 L611.5109956257643,202.87452036956688 M611.5109956257643,202.87452036956688 L615.8090660397643,225.4819679052705 M615.8090660397643,225.4819679052705 L624.1530615831127,248.65383716376323 M624.1530615831127,248.65383716376323 L636.0580763756569,271.0435765947742 M636.0580763756569,271.0435765947742 L650.8322918353942,291.35010587726697 M650.8322918353942,291.35010587726697 L667.6171673896222,308.39336919890115 M667.6171673896222,308.39336919890115 L685.4373266739806,321.1829264410478 M567.4475454490857,389.30736806585446 L685.4373266739806,321.1829264410478" stroke="black"  stroke-width="4"  fill="red"/>
<path d="M380.12178530680194,497.46472439920956 L675.1135544384942,327.1436224581347 M380.0921964288785,325.4804073394913 L675.0970032051953,155.16682802415733 M380.12178530680194,497.46472439920956 L397.9414688237242,505.2590348620598 M397.9414688237242,505.2590348620598 L414.72491349431914,507.6030762544292 M414.72491349431914,507.6030762544292 L429.49673682969376,504.3605161190168 M429.49673682969376,504.3605161190168 L441.39841138783135,495.7196825743289 M441.39841138783135,495.7196825743289 L449.7381790403183,482.1826275594509 M449.7381790403183,482.1826275594509 L454.0312687982102,464.5360059472072 M454.0312687982102,464.5360059472072 L454.0280959405676,443.8053598654342 M454.0280959405676,443.8053598654342 L449.72877754981425,421.19551526867747 M449.72877754981425,421.19551526867747 L441.3831411304774,398.02056145874985 M441.3831411304774,398.02056145874985 L429.4762222741015,375.62746534159135 M429.4762222741015,375.62746534159135 L414.70006766617644,355.3177432108994 M414.70006766617644,355.3177432108994 L397.9135042145084,338.271826949364 M397.9135042145084,338.271826949364 L380.0921964288785,325.4804073394913 M675.1135544384942,327.1436224581347 L692.9334278470759,334.93624107034816 M692.9334278470759,334.93624107034816 L709.717430193642,337.2789074780419 M709.717430193642,337.2789074780419 L724.490146587131,334.0353691461603 M724.490146587131,334.0353691461603 L736.3929976947021,325.3940110615663 M736.3929976947021,325.3940110615663 L744.7341570236316,311.8569156685155 M744.7341570236316,311.8569156685155 L749.0287727151479,294.2107402031006 M749.0287727151479,294.2107402031006 L749.0271713719486,273.48100087364685 M749.0271713719486,273.48100087364685 L744.7293787459507,250.87247093767303 M744.7293787459507,250.87247093767303 L736.385133664181,227.69916328463592 M736.385133664181,227.69916328463592 L724.4793908486562,205.3079491347894 M724.4793908486562,205.3079491347894 L709.7041286267181,185.0002353888034 M709.7041286267181,185.0002353888034 L692.918122032377,167.95633718957504 M692.918122032377,167.95633718957504 L675.0970032051953,155.16682802415733 M380.0921964288785,325.4804073394913 L362.27193694795244,317.6868647265803 M362.27193694795244,317.6868647265803 L345.48842525536645,315.34406825445956 M345.48842525536645,315.34406825445956 L330.71705919400006,318.5880651844682 M330.71705919400006,318.5880651844682 L318.8162614497541,327.23019824530263 M318.8162614497541,327.23019824530263 L310.4775892836971,340.76811779473644 M310.4775892836971,340.76811779473644 L306.18556272179194,358.41497090522876 M306.18556272179194,358.41497090522876 L306.1895229198967,379.1451624157745 M306.1895229198967,379.1451624157745 L310.48917242556143,401.75397050851154 M310.48917242556143,401.75397050851154 L318.8346078793243,424.9275433320257 M318.8346078793243,424.9275433320257 L330.74083972835473,447.3192303481758 M330.74083972835473,447.3192303481758 L345.5159786726541,467.6278380706659 M345.5159786726541,467.6278380706659 L362.30143048078367,484.67318991481375 M362.30143048078367,484.67318991481375 L380.12178530680194,497.46472439920956 M675.0970032051953,155.16682802415733 L657.2765537995626,147.37497720478723 M657.2765537995626,147.37497720478723 L640.4924843395581,145.03355555906148 M640.4924843395581,145.03355555906148 L625.7202250911802,148.27853046233542 M625.7202250911802,148.27853046233542 L613.818250660682,156.921187826081 M613.818250660682,156.921187826081 L605.4781867047855,170.4591475571949 M605.4781867047855,170.4591475571949 L601.1846341452596,188.10555440988173 M601.1846341452596,188.10555440988173 L601.1870228289852,208.8348391680713 M601.1870228289852,208.8348391680713 L605.4851466340042,231.4423327109365 M605.4851466340042,231.4423327109365 L613.8291908636693,254.61425957401116 M613.8291908636693,254.61425957401116 L625.7342468086831,277.0040648598349 M625.7342468086831,277.0040648598349 L640.5084934958475,297.31066442084943 M640.5084934958475,297.31066442084943 L657.2933885380012,314.35399836102613 M657.2933885380012,314.35399836102613 L675.1135544384942,327.1436224581347 M380.09380777101165,334.8462770779962 L675.0979045472313,164.5322880635522 M380.1201740993208,488.099637321116 L675.1126531717724,317.7789449764389 M380.09380777101165,334.8462770779962 L364.21439635868506,327.9015034675267 M364.21439635868506,327.9015034675267 L349.258795436226,325.81380421395136 M349.258795436226,325.81380421395136 L336.09616874733695,328.70441986456797 M336.09616874733695,328.70441986456797 L325.49145781732324,336.40527284727614 M325.49145781732324,336.40527284727614 L318.0609033849633,348.46872327813423 M318.0609033849633,348.46872327813423 L314.23626985929786,364.1936267744468 M314.23626985929786,364.1936267744468 L314.2397605464203,382.6660965056218 M314.2397605464203,382.6660965056218 L318.0711191402402,402.8126099754609 M318.0711191402402,402.8126099754609 L325.50765686044446,423.4623965856955 M325.50765686044446,423.4623965856955 L336.1172008517141,443.4154554612867 M336.1172008517141,443.4154554612867 L349.28321660586585,461.5122849767554 M349.28321660586585,461.5122849767554 L364.24060353539426,476.7012409786199 M364.24060353539426,476.7012409786199 L380.1201740993208,488.099637321116 M675.0979045472313,164.5322880635522 L659.218323896313,157.58902199446834 M659.218323896313,157.58902199446834 L644.2622259577133,155.5025478413096 M644.2622259577133,155.5025478413096 L631.0988033661897,158.3940349643816 M631.0988033661897,158.3940349643816 L620.4930439102282,166.09535515874984 M620.4930439102282,166.09535515874984 L613.0612492745663,178.1588414047127 M613.0612492745663,178.1588414047127 L609.2352559522731,193.88334725139862 M609.2352559522731,193.88334725139862 L609.2373462800597,212.35500898543512 M609.2373462800597,212.35500898543512 L613.0673453356676,232.50035106850714 M613.0673453356676,232.50035106850714 L620.5026433456883,253.14867097163335 M620.5026433456883,253.14867097163335 L631.1111394947732,273.1000530464536 M631.1111394947732,273.1000530464536 L644.2763601623866,291.195093100352 M644.2763601623866,291.195093100352 L659.2332509592792,306.3822509622512 M659.2332509592792,306.3822509622512 L675.1126531717724,317.7789449764389 M380.1201740993208,488.099637321116 L395.9991281733051,495.0450206353735 M395.9991281733051,495.0450206353735 L410.954675877666,497.13370840524226 M410.954675877666,497.13370840524226 L424.1176656602547,494.24423362654295 M424.1176656602547,494.24423362654295 L434.72307281538474,486.5444125113829 M434.72307281538474,486.5444125113829 L442.1544971076373,474.48164855541677 M442.1544971076373,474.48164855541677 L445.9799748534504,458.75692887809305 M445.9799748534504,458.75692887809305 L445.9771093460148,440.2840981992583 M445.9771093460148,440.2840981992583 L442.1460136702405,420.1367617038969 M442.1460136702405,420.1367617038969 L434.7093163752769,399.485878535457 M434.7093163752769,399.485878535457 L424.09922687316885,379.53170077738764 M424.09922687316885,379.53170077738764 L410.93240464150267,361.4339863777659 M410.93240464150267,361.4339863777659 L395.9741350228063,346.24458220592 M395.9741350228063,346.24458220592 L380.09380777101165,334.8462770779962 M675.1126531717724,317.7789449764389 L690.9917764581076,324.72282070397387 M690.9917764581076,324.72282070397387 L705.9478211059964,326.8102832477455 M705.9478211059964,326.8102832477455 L719.1116066888701,323.91993681935753 M719.1116066888701,323.91993681935753 L729.7180622613084,316.2196483043539 M729.7180622613084,316.2196483043539 L737.1507266668214,304.1568483772602 M737.1507266668214,304.1568483772602 L740.9775641584463,288.4325262614432 M740.9775641584463,288.4325262614432 L740.9760990103973,269.9605035797173 M740.9760990103973,269.9605035797173 L737.146362923741,249.81433855919124 M737.146362923741,249.81433855919124 L729.7109054290603,229.16492225384923 M729.7109054290603,229.16492225384923 L719.1018638777887,209.21242148472732 M719.1018638777887,209.21242148472732 L705.9358368349745,191.11649672392957 M705.9358368349745,191.11649672392957 L690.9780634214503,175.92889081777366 M690.9780634214503,175.92889081777366 L675.0979045472313,164.5322880635522" stroke="black"  stroke-width="4"  fill="red"/>
<path d="M380.1201740993208,488.099637321116 L675.1126531717724,317.7789449764389 M380.09380777101165,334.8462770779962 L675.0979045472313,164.5322880635522 M380.1201740993208,488.099637321116 L395.9991281733051,495.0450206353735 M395.9991281733051,495.0450206353735 L410.954675877666,497.13370840524226 M410.954675877666,497.13370840524226 L424.1176656602547,494.24423362654295 M424.1176656602547,494.24423362654295 L434.72307281538474,486.5444125113829 M434.72307281538474,486.5444125113829 L442.1544971076373,474.48164855541677 M442.1544971076373,474.48164855541677 L445.9799748534504,458.75692887809305 M445.9799748534504,458.75692887809305 L445.9771093460148,440.2840981992583 M445.9771093460148,440.2840981992583 L442.1460136702405,420.1367617038969 M442.1460136702405,420.1367617038969 L434.7093163752769,399.485878535457 M434.7093163752769,399.485878535457 L424.09922687316885,379.53170077738764 M424.09922687316885,379.53170077738764 L410.93240464150267,361.4339863777659 M410.93240464150267,361.4339863777659 L395.9741350228063,346.24458220592 M395.9741350228063,346.24458220592 L380.09380777101165,334.8462770779962 M675.1126531717724,317.7789449764389 L690.9917764581076,324.72282070397387 M690.9917764581076,324.72282070397387 L705.9478211059964,326.8102832477455 M705.9478211059964,326.8102832477455 L719.1116066888701,323.91993681935753 M719.1116066888701,323.91993681935753 L729.7180622613084,316.2196483043539 M729.7180622613084,316.2196483043539 L737.1507266668214,304.1568483772602 M737.1507266668214,304.1568483772602 L740.9775641584463,288.4325262614432 M740.9775641584463,288.4325262614432 L740.9760990103973,269.9605035797173 M740.9760990103973,269.9605035797173 L737.146362923741,249.81433855919124 M737.146362923741,249.81433855919124 L729.7109054290603,229.16492225384923 M729.7109054290603,229.16492225384923 L719.1018638777887,209.21242148472732 M719.1018638777887,209.21242148472732 L705.9358368349745,191.11649672392957 M705.9358368349745,191.11649672392957 L690.9780634214503,175.92889081777366 M690.9780634214503,175.92889081777366 L675.0979045472313,164.5322880635522 M380.09380777101165,334.8462770779962 L364.21439635868506,327.9015034675267 M364.21439635868506,327.9015034675267 L349.258795436226,325.81380421395136 M349.258795436226,325.81380421395136 L336.09616874733695,328.70441986456797 M336.09616874733695,328.70441986456797 L325.49145781732324,336.40527284727614 M325.49145781732324,336.40527284727614 L318.0609033849633,348.46872327813423 M318.0609033849633,348.46872327813423 L314.23626985929786,364.1936267744468 M314.23626985929786,364.1936267744468 L314.2397605464203,382.6660965056218 M314.2397605464203,382.6660965056218 L318.0711191402402,402.8126099754609 M318.0711191402402,402.8126099754609 L325.50765686044446,423.4623965856955 M325.50765686044446,423.4623965856955 L336.1172008517141,443.4154554612867 M336.1172008517141,443.4154554612867 L349.28321660586585,461.5122849767554 M349.28321660586585,461.5122849767554 L364.24060353539426,476.7012409786199 M364.24060353539426,476.7012409786199 L380.1201740993208,488.099637321116 M675.0979045472313,164.5322880635522 L659.218323896313,157.58902199446834 M659.218323896313,157.58902199446834 L644.2622259577133,155.5025478413096 M644.2622259577133,155.5025478413096 L631.0988033661897,158.3940349643816 M631.0988033661897,158.3940349643816 L620.4930439102282,166.09535515874984 M620.4930439102282,166.09535515874984 L613.0612492745663,178.1588414047127 M613.0612492745663,178.1588414047127 L609.2352559522731,193.88334725139862 M609.2352559522731,193.88334725139862 L609.2373462800597,212.35500898543512 M609.2373462800597,212.35500898543512 L613.0673453356676,232.50035106850714 M613.0673453356676,232.50035106850714 L620.5026433456883,253.14867097163335 M620.5026433456883,253.14867097163335 L631.1111394947732,273.1000530464536 M631.1111394947732,273.1000530464536 L644.2763601623866,291.195093100352 M644.2763601623866,291.195093100352 L659.2332509592792,306.3822509622512 M659.2332509592792,306.3822509622512 L675.1126531717724,317.7789449764389" stroke="black"  stroke-width="4"  fill="red"/></svg>